<?xml version="1.0" encoding="UTF-8" standalone="no"?>
<!-- Uploaded to: SVG Repo, www.svgrepo.com, Generator: SVG Repo Mixer Tools -->

<svg
   fill="#000000"
   height="900"
   width="900"
   version="1.1"
   id="Capa_1"
   viewBox="0 0 68.061421 68.061375"
   xml:space="preserve"
   sodipodi:docname="checked-svgrepo-com(2).svg"
   inkscape:export-filename="checked-svgrepo-com(2).png"
   inkscape:export-xdpi="85.333336"
   inkscape:export-ydpi="85.333336"
   inkscape:version="1.2.1 (9c6d41e, 2022-07-14)"
   xmlns:inkscape="http://www.inkscape.org/namespaces/inkscape"
   xmlns:sodipodi="http://sodipodi.sourceforge.net/DTD/sodipodi-0.dtd"
   xmlns="http://www.w3.org/2000/svg"
   xmlns:svg="http://www.w3.org/2000/svg"><defs
   id="defs4777" /><sodipodi:namedview
   id="namedview4775"
   pagecolor="#ffffff"
   bordercolor="#000000"
   borderopacity="0.25"
   inkscape:showpageshadow="2"
   inkscape:pageopacity="0.0"
   inkscape:pagecheckerboard="0"
   inkscape:deskcolor="#d1d1d1"
   showgrid="false"
   inkscape:zoom="0.54115914"
   inkscape:cx="305.82501"
   inkscape:cy="413.00236"
   inkscape:window-width="1390"
   inkscape:window-height="953"
   inkscape:window-x="0"
   inkscape:window-y="25"
   inkscape:window-maximized="0"
   inkscape:current-layer="Capa_1" />

<path
   style="fill:#7253ed;stroke:#ffffff;stroke-width:0.284754;stroke-linecap:round;stroke-linejoin:round"
   d="M 27.000764,53.370166 C 25.859143,53.180343 24.755846,52.628874 23.877685,51.809136 22.25421,50.29367 6.9094382,35.730237 6.0915845,34.928685 4.3999004,33.27072 3.8533026,32.131534 3.8534409,30.264085 c 1.364e-4,-1.838406 0.8306558,-3.528944 2.2704036,-4.621449 0.9197887,-0.69795 1.7948047,-1.056459 2.9355837,-1.202758 1.3863688,-0.177795 2.9699608,0.250009 4.1137918,1.111332 0.349704,0.263333 3.061531,2.822194 11.985584,11.309515 1.66655,1.584991 3.063598,2.881801 3.104552,2.881801 0.04095,0 3.152726,-2.78771 6.915047,-6.19491 17.416923,-15.772963 19.524369,-17.673261 19.839687,-17.889571 0.531442,-0.364572 1.221267,-0.687118 1.858248,-0.868871 0.800059,-0.228286 2.131739,-0.22702 2.982451,0.0028 2.045986,0.552803 3.684786,2.216595 4.198543,4.262572 0.185613,0.739186 0.199185,1.936167 0.03066,2.704195 -0.168244,0.766741 -0.761772,1.952459 -1.249958,2.497096 -0.313128,0.349336 -28.353194,25.804735 -30.220467,27.434814 -0.570979,0.498451 -1.380721,0.919681 -2.502492,1.301804 -1.31089,0.446545 -2.11423,0.543968 -3.114311,0.377679 z"
   id="path4896" /></svg>
